<?xml version="1.0" encoding="utf-8"?>
<!-- Generator: Adobe Illustrator 22.0.0, SVG Export Plug-In . SVG Version: 6.00 Build 0)  -->
<svg version="1.1" id="Layer_1" xmlns="http://www.w3.org/2000/svg" xmlns:xlink="http://www.w3.org/1999/xlink" x="0px" y="0px"
	 viewBox="0 0 16 16" style="enable-background:new 0 0 16 16;" xml:space="preserve">
<style type="text/css">
	.st0{fill:#FFFFFF;}
	.st1{fill:#333333;}
</style>
<title>8DE5B262-9588-4226-AB94-4B5D6790E05A</title>
<desc>Created with sketchtool.</desc>
<g id="Page-1">
	<g id="PT0010-Header-Standard-320-Menu" transform="translate(-282.000000, -21.000000)">
		<g id="global-nav" transform="translate(0.000000, -1.000000)">
			<rect id="BG" y="1" class="st0" width="320" height="568"/>
			<g id="Top">
				
					<rect id="Rectangle-125" x="145.7" y="65.7" transform="matrix(0.7071 -0.7071 0.7071 0.7071 10.9269 192.2917)" class="st0" width="183.7" height="34.4"/>
				<path id="close" class="st1" d="M291,29.5v-4.4c0-0.4-0.3-0.7-0.7-0.7c-0.4,0-0.7,0.3-0.7,0.7v4.4h-4.4c-0.4,0-0.7,0.3-0.7,0.7
					s0.3,0.7,0.7,0.7h4.4v4.4c0,0.4,0.3,0.7,0.7,0.7c0.4,0,0.7-0.3,0.7-0.7v-4.4h4.4c0.4,0,0.7-0.3,0.7-0.7s-0.3-0.7-0.7-0.7H291z"
					/>
			</g>
		</g>
	</g>
</g>
</svg>
